<svg width="40" height="40" viewBox="0 0 40 40" fill="none" xmlns="http://www.w3.org/2000/svg">
<g clip-path="url(#clip0_1071_3081)">
<path d="M39.9806 9.26668C39.8027 13.7452 37.083 19.8778 31.823 27.6613C26.3845 35.7917 21.7833 39.8566 18.0194 39.8566C15.6884 39.8566 13.7145 37.3815 12.1033 32.4296C11.0264 27.8904 9.95094 23.3515 8.87453 18.8125C7.67719 13.8633 6.39359 11.3854 5.02125 11.3854C4.72203 11.3854 3.67484 12.1097 1.88203 13.5524L0 10.7637C1.95917 8.78512 3.90507 6.78925 5.8375 4.77628C8.47031 2.15924 10.4469 0.783098 11.7641 0.643905C14.8773 0.300049 16.7933 2.74758 17.5125 7.98704C18.2897 13.6398 18.8273 17.1558 19.1297 18.532C20.0269 23.2217 21.0141 25.5635 22.093 25.5635C22.9302 25.5635 24.1878 24.0428 25.8645 21.001C27.5398 17.9583 28.437 15.6435 28.5583 14.0534C28.7966 11.4278 27.8989 10.1117 25.8645 10.1117C24.907 10.1117 23.9197 10.3652 22.9042 10.8661C24.8698 3.45987 28.6258 -0.137081 34.1698 0.0681204C38.2798 0.206775 40.2175 3.27296 39.9808 9.26668" fill="white"/>
</g>
<defs>
<clipPath id="clip0_1071_3081">
<rect width="40" height="40" fill="white"/>
</clipPath>
</defs>
</svg>
